<?xml version="1.0" encoding="UTF-8"?>
<!DOCTYPE svg PUBLIC "-//W3C//DTD SVG 1.1//EN" "http://www.w3.org/Graphics/SVG/1.1/DTD/svg11.dtd">
<!-- Creator: CorelDRAW 2019 (64-Bit) -->
<svg xmlns="http://www.w3.org/2000/svg" xml:space="preserve" width="64.6776mm" height="64.6776mm" version="1.1" style="shape-rendering:geometricPrecision; text-rendering:geometricPrecision; image-rendering:optimizeQuality; fill-rule:evenodd; clip-rule:evenodd"
viewBox="0 0 796.95 796.95"
 xmlns:xlink="http://www.w3.org/1999/xlink">
 <defs>
  <style type="text/css">
   <![CDATA[
    .fil2 {fill:black}
    .fil0 {fill:#1A1A1A}
    .fil1 {fill:url(#id8)}
   ]]>
  </style>
   <mask id="id0">
  <linearGradient id="id1" gradientUnits="userSpaceOnUse" x1="330.87" y1="518.33" x2="255.9" y2="385.63">
   <stop offset="0" style="stop-opacity:1; stop-color:white"/>
   <stop offset="1" style="stop-opacity:0; stop-color:white"/>
  </linearGradient>
    <rect style="fill:url(#id1)" x="212.51" y="365.37" width="104.37" height="73.33"/>
   </mask>
   <mask id="id2">
  <linearGradient id="id3" gradientUnits="userSpaceOnUse" x1="382.36" y1="602.13" x2="346.43" y2="553.76">
   <stop offset="0" style="stop-opacity:1; stop-color:white"/>
   <stop offset="1" style="stop-opacity:0; stop-color:white"/>
  </linearGradient>
    <rect style="fill:url(#id3)" x="312.02" y="528.67" width="70.41" height="73.61"/>
   </mask>
   <mask id="id4">
  <linearGradient id="id5" gradientUnits="userSpaceOnUse" x1="326.67" y1="205.8" x2="445.53" y2="138.08">
   <stop offset="0" style="stop-opacity:1; stop-color:white"/>
   <stop offset="1" style="stop-opacity:0; stop-color:white"/>
  </linearGradient>
    <rect style="fill:url(#id5)" x="340.76" y="130.42" width="154.67" height="83.54"/>
   </mask>
   <mask id="id6">
  <linearGradient id="id7" gradientUnits="userSpaceOnUse" x1="292.59" y1="459.18" x2="328.52" y2="534.73">
   <stop offset="0" style="stop-opacity:1; stop-color:white"/>
   <stop offset="1" style="stop-opacity:0; stop-color:white"/>
  </linearGradient>
    <rect style="fill:url(#id7)" x="261.65" y="494.18" width="105.93" height="59.19"/>
   </mask>
  <linearGradient id="id8" gradientUnits="userSpaceOnUse" x1="142" y1="398.47" x2="642.24" y2="398.47">
   <stop offset="0" style="stop-opacity:1; stop-color:#0FD4A6"/>
   <stop offset="1" style="stop-opacity:1; stop-color:#2C5BDF"/>
  </linearGradient>
 </defs>
 <g id="Слой_x0020_1">
  <metadata id="CorelCorpID_0Corel-Layer"/>
  <rect class="fil0" x="-0" y="-0" width="796.95" height="796.95" rx="122.7" ry="158.39"/>
  <path class="fil1" d="M248.75 131.65l70.27 0 234.1 0c82.42,0 133.43,-10.19 79.73,87.75 -68.68,125.24 -132.92,253.65 -203.9,377.33 -21.68,37.78 -51.43,68.88 -112.46,68.88 -33.73,0 -67.47,-0.02 -101.2,-0.02 -10.75,0 -14.51,0.1 -24.85,-4.2 -28.36,-11.81 -48.44,-39.86 -48.44,-72.38l0 -73.18c0,-43.09 35.26,-78.35 78.35,-78.35l24.81 0 -5.38 -9.82c-28.14,-51.31 -50.83,-88.96 -73.74,-135.3 -11.6,-23.45 -27.03,-47.46 -22.27,-73.25 9.15,-49.58 52.87,-87.45 105,-87.45zm436.16 412.68l-6.09 -19.67c-3.28,-10.3 -9.37,-11.24 -17.33,-8.9l-44.49 16.86 1.87 -47.76c0,-8.43 -2.81,-13.58 -13.58,-13.58l-20.6 0c-10.77,0 -13.58,5.15 -13.58,13.58l2.34 47.76 -44.49 -16.86c-7.96,-2.34 -14.05,-1.41 -17.33,8.9l-6.09 19.67c-3.28,10.3 0.47,14.52 8.43,16.86l45.89 12.64 -29.5 37.46c-5.15,6.56 -5.62,12.64 2.81,18.73l16.86 12.18c8.9,6.56 14.05,3.75 18.73,-2.81l26.22 -39.8 26.22 39.8c5.15,6.56 10.3,9.36 19.2,2.81l16.86 -12.18c8.43,-6.09 7.96,-12.18 2.81,-18.73l-29.5 -37.46 45.89 -12.64c7.96,-2.34 11.71,-6.56 8.43,-16.86zm-366.12 27.42c-11.47,-20.91 -18.36,-33.48 -30.9,-56.34 -10.78,-19.66 -10.98,-16.12 -32.11,-16.12l-24.97 0c-14.84,0 -26.99,12.15 -26.99,26.99 0,19.51 0,39.01 0,58.52 0,22.86 5.77,18.98 25.53,18.98l67 0c32.45,0 38.4,-2.91 22.44,-32.03zm66.99 -30.35l158.15 -288.39c28.68,-52.3 42.48,-60.93 -1.17,-59.54l-87.36 -0.02c-35.8,0 -29.62,12.88 -29.62,44.97l0 154.12c0,48.89 -33.31,90.37 -78.35,102.89l25.9 47.23c6.68,12.18 5.82,10.83 12.45,-1.26zm-70.12 -103.92l3.37 0c24.72,0 44.94,-20.22 44.94,-44.94l0 -11.19c0,-47.64 0,-95.28 0,-142.92 0,-24.72 -20.22,-44.94 -44.94,-44.94l-70.27 0c-17.73,0 -33.15,10.41 -40.45,25.42 -6.9,14.18 4.56,31.15 11.36,43.55 22.73,41.44 40.47,73.8 63.2,115.25l-0 0 32.79 59.79z"/>
  <polygon class="fil2" style="mask:url(#id0)" points="245.16,437.47 315.65,437.47 276.8,366.61 213.74,380.96 "/>
  <path class="fil2" style="mask:url(#id2)" d="M322.54 601.04c23.2,-9.69 43.99,-29.28 58.66,-51.4 -2.28,3.3 -3.34,1.26 -7.87,-6.99l-6.99 -12.75 -53.09 31.74c1.75,3.19 3.58,6.52 5.54,10.1 9.72,17.73 11.32,25.74 3.75,29.3z"/>
  <path class="fil2" style="mask:url(#id4)" d="M425.49 212.73c0.77,-13.5 5.9,-19.29 29.91,-19.29l38.79 0.01 -18.42 -61.8 -133.78 0c58.55,0 85.09,46.07 83.5,81.08z"/>
  <path class="fil2" style="mask:url(#id6)" d="M347.43 495.41c-29.65,5.63 -56.37,2.46 -84.55,3.69 0.13,0 0.24,0.02 0.34,0.05 13.94,-0.41 15.34,-0.78 24.68,16.25 8.17,14.9 13.94,25.42 20.15,36.74l58.3 -22.24c-6.3,-11.5 -12.61,-22.99 -18.91,-34.49z"/>
 </g>
</svg>
