<?xml version="1.0" encoding="UTF-8"?>
<!DOCTYPE svg PUBLIC "-//W3C//DTD SVG 1.1//EN" "http://www.w3.org/Graphics/SVG/1.1/DTD/svg11.dtd">
<!-- Creator: CorelDRAW 2019 (64-Bit) -->
<svg xmlns="http://www.w3.org/2000/svg" xml:space="preserve" width="44.1578mm" height="43.3584mm" version="1.1" style="shape-rendering:geometricPrecision; text-rendering:geometricPrecision; image-rendering:optimizeQuality; fill-rule:evenodd; clip-rule:evenodd"
viewBox="0 0 395.12 387.97"
 xmlns:xlink="http://www.w3.org/1999/xlink">
 <defs>
  <style type="text/css">
   <![CDATA[
    .fil1 {fill:black}
    .fil0 {fill:url(#id8)}
   ]]>
  </style>
   <mask id="id0">
  <linearGradient id="id1" gradientUnits="userSpaceOnUse" x1="137.16" y1="281.03" x2="82.71" y2="184.66">
   <stop offset="0" style="stop-opacity:1; stop-color:white"/>
   <stop offset="1" style="stop-opacity:0; stop-color:white"/>
  </linearGradient>
    <rect style="fill:url(#id1)" x="51.21" y="169.95" width="75.8" height="53.25"/>
   </mask>
   <mask id="id2">
  <linearGradient id="id3" gradientUnits="userSpaceOnUse" x1="174.55" y1="341.87" x2="148.45" y2="306.75">
   <stop offset="0" style="stop-opacity:1; stop-color:white"/>
   <stop offset="1" style="stop-opacity:0; stop-color:white"/>
  </linearGradient>
    <rect style="fill:url(#id3)" x="123.47" y="288.53" width="51.13" height="53.45"/>
   </mask>
   <mask id="id4">
  <linearGradient id="id5" gradientUnits="userSpaceOnUse" x1="134.11" y1="54.07" x2="220.42" y2="4.89">
   <stop offset="0" style="stop-opacity:1; stop-color:white"/>
   <stop offset="1" style="stop-opacity:0; stop-color:white"/>
  </linearGradient>
    <rect style="fill:url(#id5)" x="144.34" y="-0.67" width="112.32" height="60.67"/>
   </mask>
   <mask id="id6">
  <linearGradient id="id7" gradientUnits="userSpaceOnUse" x1="109.36" y1="238.07" x2="135.45" y2="292.93">
   <stop offset="0" style="stop-opacity:1; stop-color:white"/>
   <stop offset="1" style="stop-opacity:0; stop-color:white"/>
  </linearGradient>
    <rect style="fill:url(#id7)" x="86.89" y="263.49" width="76.92" height="42.98"/>
   </mask>
  <linearGradient id="id8" gradientUnits="userSpaceOnUse" x1="-0" y1="193.98" x2="363.27" y2="193.98">
   <stop offset="0" style="stop-opacity:1; stop-color:#0FD4A6"/>
   <stop offset="1" style="stop-opacity:1; stop-color:#2C5BDF"/>
  </linearGradient>
 </defs>
 <g id="Слой_x0020_1">
  <metadata id="CorelCorpID_0Corel-Layer"/>
  <path class="fil0" d="M77.52 0.22l51.03 0 170 0c59.85,0 96.9,-7.4 57.9,63.72 -49.87,90.94 -96.53,184.2 -148.07,274.01 -15.75,27.44 -37.34,50.02 -81.66,50.02 -24.5,0 -49,-0.01 -73.49,-0.01 -7.81,0 -10.54,0.07 -18.05,-3.05 -20.6,-8.58 -35.18,-28.95 -35.18,-52.56l0 -53.14c0,-31.29 25.61,-56.9 56.9,-56.9l18.01 0 -3.91 -7.13c-20.43,-37.26 -36.91,-64.6 -53.55,-98.25 -8.42,-17.03 -19.63,-34.46 -16.17,-53.19 6.64,-36.01 38.39,-63.51 76.25,-63.51zm316.73 299.68l-4.42 -14.28c-2.38,-7.48 -6.8,-8.16 -12.58,-6.46l-32.31 12.24 1.36 -34.69c0,-6.12 -2.04,-9.86 -9.86,-9.86l-14.96 0c-7.82,0 -9.86,3.74 -9.86,9.86l1.7 34.69 -32.31 -12.24c-5.78,-1.7 -10.2,-1.02 -12.58,6.46l-4.42 14.28c-2.38,7.48 0.34,10.54 6.12,12.24l33.33 9.18 -21.42 27.2c-3.74,4.76 -4.08,9.18 2.04,13.6l12.24 8.84c6.46,4.76 10.2,2.72 13.6,-2.04l19.04 -28.9 19.04 28.9c3.74,4.76 7.48,6.8 13.94,2.04l12.24 -8.84c6.12,-4.42 5.78,-8.84 2.04,-13.6l-21.42 -27.2 33.33 -9.18c5.78,-1.7 8.5,-4.76 6.12,-12.24zm-265.87 19.91c-8.33,-15.18 -13.33,-24.31 -22.44,-40.91 -7.83,-14.28 -7.98,-11.71 -23.32,-11.71l-18.13 0c-10.78,0 -19.6,8.82 -19.6,19.6 0,14.16 0,28.33 0,42.5 0,16.6 4.19,13.79 18.54,13.79l48.65 0c23.56,0 27.89,-2.11 16.29,-23.26zm48.65 -22.04l114.84 -209.42c20.83,-37.98 30.85,-44.24 -0.85,-43.24l-63.44 -0.02c-26,0 -21.51,9.35 -21.51,32.66l0 111.92c0,35.5 -24.19,65.63 -56.9,74.72l18.81 34.3c4.85,8.85 4.23,7.86 9.04,-0.91zm-50.92 -75.47l2.45 0c17.95,0 32.64,-14.69 32.64,-32.64l0 -8.13c0,-34.6 0,-69.19 0,-103.79 0,-17.95 -14.69,-32.64 -32.64,-32.64l-51.03 0c-12.88,0 -24.07,7.56 -29.37,18.46 -5.01,10.3 3.31,22.62 8.25,31.63 16.5,30.1 29.39,53.6 45.89,83.69l-0 0 23.81 43.42z"/>
  <polygon class="fil1" style="mask:url(#id0)" points="74.91,222.3 126.11,222.3 97.89,170.84 52.1,181.27 "/>
  <path class="fil1" style="mask:url(#id2)" d="M131.11 341.08c16.85,-7.03 31.94,-21.26 42.59,-37.33 -1.65,2.4 -2.43,0.92 -5.71,-5.08l-5.08 -9.26 -38.55 23.05c1.27,2.31 2.6,4.74 4.02,7.34 7.06,12.87 8.22,18.69 2.73,21.28z"/>
  <path class="fil1" style="mask:url(#id4)" d="M205.87 59.1c0.56,-9.8 4.28,-14.01 21.72,-14.01l28.17 0.01 -13.38 -44.88 -97.15 0c42.52,0 61.79,33.45 60.64,58.88z"/>
  <path class="fil1" style="mask:url(#id6)" d="M149.18 264.38c-21.53,4.09 -40.93,1.79 -61.4,2.68 0.09,0 0.18,0.01 0.25,0.04 10.12,-0.3 11.14,-0.57 17.92,11.8 5.93,10.82 10.13,18.46 14.63,26.68l42.34 -16.15c-4.58,-8.35 -9.16,-16.7 -13.73,-25.04z"/>
 </g>
</svg>
