<?xml version="1.0" encoding="UTF-8"?>
<!DOCTYPE svg PUBLIC "-//W3C//DTD SVG 1.1//EN" "http://www.w3.org/Graphics/SVG/1.1/DTD/svg11.dtd">
<!-- Creator: CorelDRAW 2019 (64-Bit) -->
<svg xmlns="http://www.w3.org/2000/svg" xml:space="preserve" width="64.6776mm" height="64.6776mm" version="1.1" style="shape-rendering:geometricPrecision; text-rendering:geometricPrecision; image-rendering:optimizeQuality; fill-rule:evenodd; clip-rule:evenodd"
viewBox="0 0 810.99 810.99"
 xmlns:xlink="http://www.w3.org/1999/xlink">
 <defs>
  <style type="text/css">
   <![CDATA[
    .fil2 {fill:black}
    .fil0 {fill:white}
    .fil1 {fill:url(#id8)}
   ]]>
  </style>
   <mask id="id0">
  <linearGradient id="id1" gradientUnits="userSpaceOnUse" x1="336.7" y1="527.47" x2="260.4" y2="392.43">
   <stop offset="0" style="stop-opacity:1; stop-color:white"/>
   <stop offset="1" style="stop-opacity:0; stop-color:white"/>
  </linearGradient>
    <rect style="fill:url(#id1)" x="216.25" y="371.81" width="106.21" height="74.62"/>
   </mask>
   <mask id="id2">
  <linearGradient id="id3" gradientUnits="userSpaceOnUse" x1="389.1" y1="612.74" x2="352.53" y2="563.51">
   <stop offset="0" style="stop-opacity:1; stop-color:white"/>
   <stop offset="1" style="stop-opacity:0; stop-color:white"/>
  </linearGradient>
    <rect style="fill:url(#id3)" x="317.51" y="537.98" width="71.65" height="74.9"/>
   </mask>
   <mask id="id4">
  <linearGradient id="id5" gradientUnits="userSpaceOnUse" x1="332.42" y1="209.42" x2="453.38" y2="140.51">
   <stop offset="0" style="stop-opacity:1; stop-color:white"/>
   <stop offset="1" style="stop-opacity:0; stop-color:white"/>
  </linearGradient>
    <rect style="fill:url(#id5)" x="346.76" y="132.71" width="157.39" height="85.02"/>
   </mask>
   <mask id="id6">
  <linearGradient id="id7" gradientUnits="userSpaceOnUse" x1="297.74" y1="467.27" x2="334.31" y2="544.15">
   <stop offset="0" style="stop-opacity:1; stop-color:white"/>
   <stop offset="1" style="stop-opacity:0; stop-color:white"/>
  </linearGradient>
    <rect style="fill:url(#id7)" x="266.25" y="502.89" width="107.79" height="60.23"/>
   </mask>
  <linearGradient id="id8" gradientUnits="userSpaceOnUse" x1="144.5" y1="405.49" x2="653.56" y2="405.49">
   <stop offset="0" style="stop-opacity:1; stop-color:#0FD4A6"/>
   <stop offset="1" style="stop-opacity:1; stop-color:#2C5BDF"/>
  </linearGradient>
 </defs>
 <g id="Слой_x0020_1">
  <metadata id="CorelCorpID_0Corel-Layer"/>
  <rect class="fil0" x="-0" y="-0" width="810.99" height="810.99" rx="124.86" ry="161.18"/>
  <path class="fil1" d="M253.14 133.97l71.51 0 238.22 0c83.88,0 135.78,-10.36 81.13,89.3 -69.89,127.44 -135.27,258.12 -207.49,383.97 -22.07,38.45 -52.33,70.09 -114.44,70.09 -34.33,0 -68.66,-0.02 -102.99,-0.02 -10.94,0 -14.77,0.1 -25.29,-4.28 -28.86,-12.02 -49.29,-40.57 -49.29,-73.65l0 -74.47c0,-43.85 35.88,-79.73 79.73,-79.73l25.24 0 -5.48 -9.99c-28.64,-52.22 -51.73,-90.52 -75.04,-137.68 -11.8,-23.87 -27.5,-48.29 -22.66,-74.54 9.31,-50.46 53.8,-88.99 106.85,-88.99zm443.85 419.95l-6.19 -20.01c-3.34,-10.49 -9.53,-11.44 -17.63,-9.05l-45.27 17.15 1.91 -48.61c0,-8.58 -2.86,-13.82 -13.82,-13.82l-20.97 0c-10.96,0 -13.82,5.24 -13.82,13.82l2.38 48.61 -45.27 -17.15c-8.1,-2.38 -14.29,-1.43 -17.63,9.05l-6.19 20.01c-3.34,10.48 0.48,14.77 8.58,17.16l46.7 12.87 -30.02 38.12c-5.24,6.67 -5.72,12.87 2.86,19.06l17.15 12.39c9.05,6.67 14.3,3.81 19.06,-2.86l26.69 -40.5 26.68 40.5c5.24,6.67 10.48,9.53 19.54,2.86l17.15 -12.39c8.58,-6.19 8.1,-12.39 2.86,-19.06l-30.02 -38.12 46.7 -12.87c8.1,-2.38 11.91,-6.67 8.58,-17.16zm-372.57 27.9c-11.67,-21.28 -18.68,-34.07 -31.44,-57.33 -10.97,-20 -11.18,-16.4 -32.67,-16.4l-25.41 0c-15.1,0 -27.46,12.36 -27.46,27.46 0,19.85 0,39.7 0,59.55 0,23.26 5.87,19.32 25.98,19.32l68.18 0c33.02,0 39.08,-2.96 22.83,-32.59zm68.17 -30.89l160.93 -293.47c29.18,-53.22 43.22,-62 -1.19,-60.59l-88.9 -0.03c-36.44,0 -30.14,13.11 -30.14,45.76l0 156.83c0,49.75 -33.9,91.97 -79.73,104.7l26.36 48.07c6.8,12.4 5.92,11.02 12.67,-1.28zm-71.36 -105.75l3.43 0c25.16,0 45.74,-20.58 45.74,-45.74l0 -11.39c0,-48.48 0,-96.96 0,-145.44 0,-25.16 -20.58,-45.74 -45.74,-45.74l-71.51 0c-18.04,0 -33.73,10.59 -41.16,25.86 -7.02,14.43 4.64,31.7 11.56,44.32 23.13,42.17 41.19,75.1 64.31,117.28l-0 0 33.37 60.85z"/>
  <polygon class="fil2" style="mask:url(#id0)" points="249.47,445.17 321.21,445.17 281.67,373.06 217.51,387.67 "/>
  <path class="fil2" style="mask:url(#id2)" d="M328.23 611.63c23.61,-9.86 44.76,-29.79 59.69,-52.31 -2.32,3.36 -3.4,1.29 -8.01,-7.11l-7.11 -12.97 -54.03 32.3c1.78,3.24 3.64,6.64 5.64,10.28 9.89,18.04 11.51,26.19 3.82,29.81z"/>
  <path class="fil2" style="mask:url(#id4)" d="M432.99 216.48c0.78,-13.74 6,-19.63 30.44,-19.63l39.48 0.01 -18.75 -62.89 -136.14 0c59.58,0 86.58,46.88 84.97,82.51z"/>
  <path class="fil2" style="mask:url(#id6)" d="M353.55 504.14c-30.17,5.73 -57.36,2.5 -86.04,3.76 0.13,0 0.25,0.02 0.34,0.05 14.18,-0.41 15.61,-0.79 25.11,16.53 8.31,15.16 14.19,25.87 20.5,37.38l59.33 -22.63c-6.41,-11.7 -12.83,-23.4 -19.24,-35.09z"/>
 </g>
</svg>
